<svg id="Calque_1" data-name="Calque 1" xmlns="http://www.w3.org/2000/svg" viewBox="0 0 42.52 42.52"><defs><style>.cls-1{fill:#010101;}</style></defs><g id="Groupe_113" data-name="Groupe 113"><path id="Tracé_27" data-name="Tracé 27" class="cls-1" d="M35.26,35.67a12.27,12.27,0,0,0,3.25-8.36A12.1,12.1,0,0,0,35,18.72a15.93,15.93,0,0,1-15.9,13.93h-4a12.37,12.37,0,0,0,11.13,7l13.4,0Z"/><path id="Tracé_28" data-name="Tracé 28" class="cls-1" d="M20.36,19.8a10.83,10.83,0,0,1-3.62-4.55c-.3-.64,1.83-1.79,1.83-1.79l-2-3.37s-3.13,1.61-2.95,3.4A13,13,0,0,0,21,23.09c2,1,4.37-2.05,4.37-2.05l-2.84-2.69C22.49,18.42,21,20.06,20.36,19.8Z"/><path id="Tracé_29" data-name="Tracé 29" class="cls-1" d="M29.33,7A13.89,13.89,0,0,0,8.53,25.29l.11.15L2.89,30.59l16.62,0A13.86,13.86,0,0,0,29.33,7ZM19.51,28.88l-11.88,0,3.59-3.25-.64-.67a12.08,12.08,0,1,1,8.92,4Z"/></g></svg>