<svg id="Calque_1" data-name="Calque 1" xmlns="http://www.w3.org/2000/svg" viewBox="0 0 42.52 42.52"><defs><style>.cls-1{fill:none;}.cls-2{fill:#070707;}</style></defs><path class="cls-1" d="M16.41,15c0,.18,0,.67,1.52.67h7.43v-1a.88.88,0,0,1,.05-.33H17.93C16.41,14.27,16.41,14.76,16.41,15Z"/><path class="cls-1" d="M32,17a1.08,1.08,0,0,1,0,1.8l-4.94,3.34a1,1,0,0,1-.61.19,1,1,0,0,1-.51-.13,1.08,1.08,0,0,1-.57-1V20.17H17.93c-3.4,0-5.29-1.67-5.93-3.65L5.87,19.67l16.68,8.22,16-8.52L28,14.12l-.21.05Z"/><polygon class="cls-1" points="4.77 24.02 21.55 32.31 21.68 29.39 4.79 21.12 4.77 24.02"/><polygon class="cls-1" points="23.2 34.32 23.04 38.28 39.54 29.04 39.54 26.34 32.83 31.92 23.2 34.32"/><polygon class="cls-1" points="39.51 24.04 39.53 20.8 23.41 29.4 23.28 32.53 32.23 30.28 39.51 24.04"/><polygon class="cls-1" points="4.76 29.93 21.3 38.4 21.47 34.2 4.76 25.95 4.76 29.93"/><path class="cls-2" d="M41.24,19.2a.36.36,0,0,0,0-.11.51.51,0,0,0-.05-.17l0-.05-.09-.1L41,18.71a.48.48,0,0,0-.12-.1l-.05,0L30.18,13.29a4.92,4.92,0,0,0,2.37-4.24c0-2.6-1.91-5.22-6.17-5.22H19V2.76a1.1,1.1,0,0,0-.58-1,1.07,1.07,0,0,0-1.12.06L12.31,5.2a1.1,1.1,0,0,0,0,1.8l4.18,2.83a5.14,5.14,0,0,0-4.71,4.86L3.6,18.9a.38.38,0,0,0-.12.05.1.1,0,0,0-.06.05,1,1,0,0,0-.18.17.59.59,0,0,0-.09.11.88.88,0,0,0-.12.44V30.46a.87.87,0,0,0,.47.77l18.21,9.33a.9.9,0,0,0,.39.1.86.86,0,0,0,.44-.12L40.83,30.3a.86.86,0,0,0,.44-.75V19.35A.4.4,0,0,0,41.24,19.2ZM13.67,13.71c.47-1.25,1.75-2.3,4.26-2.3H26.4c2.87,0,3.18-1.65,3.18-2.36s-.31-2.36-3.2-2.36H18.1l-.84,0V8.31L14,6.1l3.27-2.21V5.52h9.12c3.3,0,4.48,1.82,4.48,3.53a3.35,3.35,0,0,1-2.62,3.28,6.75,6.75,0,0,1-1.86.25H17.93c-2.9,0-3.21,1.65-3.21,2.37a.92.92,0,0,0,0,.16c0,.78.51,2.2,3.2,2.2H27V15.73l3.27,2.21L27,20.15V18.48H17.93c-2.81,0-4.07-1.32-4.39-2.75a3.47,3.47,0,0,1-.1-.78A3.54,3.54,0,0,1,13.67,13.71Zm5.24-4a1.26,1.26,0,0,0,0-.28V8.37h7.43c1.51,0,1.51.5,1.51.68s0,.67-1.51.67H18.91Zm6.5,4.55a.88.88,0,0,0-.05.33v1H17.93c-1.52,0-1.52-.49-1.52-.67s0-.68,1.52-.68ZM21.3,38.4,4.77,29.93V26l16.7,8.25Zm.25-6.09L4.77,24l0-2.9,16.89,8.27ZM5.87,19.67,12,16.52c.64,2,2.53,3.65,5.93,3.65h7.43v1.11a1.08,1.08,0,0,0,.57,1,1,1,0,0,0,.51.13,1,1,0,0,0,.61-.19L32,18.84A1.08,1.08,0,0,0,32,17l-4.24-2.87.21-.05,10.55,5.25-16,8.52Zm33.66,1.12,0,3.25-7.28,6.24-8.95,2.25.13-3.13Zm0,8.25L23,38.28l.16-4,9.63-2.4,6.71-5.59Z"/></svg>