<svg id="Calque_1" data-name="Calque 1" xmlns="http://www.w3.org/2000/svg" viewBox="0 0 51.94 39.07"><defs><style>.cls-1{fill:#010101;}</style></defs><g id="Groupe_109" data-name="Groupe 109"><g id="Groupe_108" data-name="Groupe 108"><path id="Tracé_20" data-name="Tracé 20" class="cls-1" d="M32.91.71,15.36,8.86a1,1,0,0,0-.6.93V29.91a1,1,0,0,0,.6.93L32.91,39a1.21,1.21,0,0,0,.88,0l17.55-8.15a1,1,0,0,0,.6-.93V9.79a1,1,0,0,0-.6-.93L33.79.71A.87.87,0,0,0,32.91.71ZM48.39,9.79l-15,7L29.42,15l6.78-3.12a1,1,0,0,0,.51-1.35A1.05,1.05,0,0,0,36.2,10L31.33,7.6a1,1,0,0,0-.93,0l-8.53,3.94L18.32,9.79l15-7ZM23.13,13.24l7.76-3.61,2.46,1.2L26.52,14a1,1,0,0,0-.6.93V23.3l-2.79-1.37Zm-6.29-1.81,4.21,2v9.19a1,1,0,0,0,.6.93l4.87,2.4A1.67,1.67,0,0,0,27,26a.88.88,0,0,0,.54-.16A1,1,0,0,0,28,25V16.63l4.32,2V36.42L16.84,29.25Zm17.55,25V18.59l15.47-7.16V29.25Z"/><path id="Tracé_21" data-name="Tracé 21" class="cls-1" d="M45.93,17.94a.93.93,0,0,0-1-.06l-6.45,3a1,1,0,0,0-.6.93v4.59a.93.93,0,0,0,.49.87,1.08,1.08,0,0,0,.55.17,1.36,1.36,0,0,0,.44-.11l6.45-3a1,1,0,0,0,.6-.93V18.81A1,1,0,0,0,45.93,17.94Zm-1.64,4.81-4.38,2V22.48l4.38-2Z"/><path id="Tracé_22" data-name="Tracé 22" class="cls-1" d="M6.29,13.62H9.73a1,1,0,0,0,1-1h0a1,1,0,0,0-1-1H6.29a1,1,0,0,0-1,1h0a1,1,0,0,0,1,1Z"/><path id="Tracé_23" data-name="Tracé 23" class="cls-1" d="M3.66,20.89H9.73a1,1,0,0,0,1-1h0a1,1,0,0,0-1-1H3.66a1.05,1.05,0,0,0-1,1h0a1,1,0,0,0,1,1Z"/><path id="Tracé_24" data-name="Tracé 24" class="cls-1" d="M1,28.16H9.73a1,1,0,0,0,1-1h0a1,1,0,0,0-1-1H1a1,1,0,0,0-1,1H0a1,1,0,0,0,1,1Z"/></g></g></svg>