<svg id="Calque_1" data-name="Calque 1" xmlns="http://www.w3.org/2000/svg" viewBox="0 0 42.52 42.52"><defs><style>.cls-1{fill:#010101;}</style></defs><path id="Tracé_25" data-name="Tracé 25" class="cls-1" d="M34.14,16.49V36.12a1.23,1.23,0,0,1-1.21,1.21H9.59a1.23,1.23,0,0,1-1.21-1.21V16.49a1.23,1.23,0,0,1,1.21-1.21h4V12.87a7.67,7.67,0,1,1,15.34,0h0v2.41h4A1.23,1.23,0,0,1,34.14,16.49ZM15.91,15.28h10.7V12.87a5.35,5.35,0,1,0-10.7,0Zm15.81,2.33h-21V35h21Z"/><path id="Tracé_26" data-name="Tracé 26" class="cls-1" d="M21.21,21.33a3.86,3.86,0,0,1,1.21,7.54v2a1.23,1.23,0,0,1-1.21,1.21h0a1.15,1.15,0,0,1-1.11-1.19V28.87a3.86,3.86,0,0,1,1.11-7.54Zm0,2.33a1.59,1.59,0,0,0-1.48,1.48,1.52,1.52,0,0,0,1.48,1.49,1.47,1.47,0,0,0,1.49-1.45v0A1.52,1.52,0,0,0,21.21,23.66Z"/></svg>