<svg id="Calque_1" data-name="Calque 1" xmlns="http://www.w3.org/2000/svg" viewBox="0 0 42.52 42.52"><defs><style>.cls-1{fill:#010101;}</style></defs><g id="Groupe_116" data-name="Groupe 116"><path id="Tracé_30" data-name="Tracé 30" class="cls-1" d="M28.32,18.45a1.46,1.46,0,0,1,0,2.07h0a59.85,59.85,0,0,0-7.5,9.22,1.49,1.49,0,0,1-1.11.7H19.6A1.46,1.46,0,0,1,18.52,30l-4.38-4.74a1.47,1.47,0,1,1,2.08-2.08l0,.05,0,0,3.1,3.36a68.93,68.93,0,0,1,6.84-8.13,1.46,1.46,0,0,1,2.07,0Zm10.3,8.62a.89.89,0,0,1-.32,1.19l-4,2.36-.05,4.6a.9.9,0,0,1-.87.87l-4.6,0-2.36,4a.89.89,0,0,1-1.19.32l-4-2.25-4,2.25a.89.89,0,0,1-1.19-.32l-2.36-4-4.6,0a.88.88,0,0,1-.86-.87l-.06-4.6-4-2.36a.87.87,0,0,1-.31-1.19l2.24-4-2.25-4a.89.89,0,0,1,.32-1.19l4-2.35.06-4.6A.87.87,0,0,1,9.1,10L13.7,10,16.06,6a.86.86,0,0,1,1.18-.32l4,2.24,4-2.24A.88.88,0,0,1,26.46,6l2.35,4,4.6.06a.87.87,0,0,1,.87.87l.06,4.6,3.95,2.35a.87.87,0,0,1,.32,1.19l-2.24,4Zm-2,.12-2.07-3.7a.93.93,0,0,1,0-.86l2.07-3.7L33,16.77a.91.91,0,0,1-.43-.75l-.06-4.23-4.24-.06a.88.88,0,0,1-.74-.43L25.38,7.66,21.69,9.73a.93.93,0,0,1-.86,0l-3.7-2.07L15,11.3a.86.86,0,0,1-.74.43L10,11.79,9.93,16a.91.91,0,0,1-.43.74L5.86,18.94l2.07,3.7a.91.91,0,0,1,0,.85l-2.07,3.7L9.5,29.36a.91.91,0,0,1,.43.75L10,34.34l4.24.06a.89.89,0,0,1,.75.43l2.16,3.64,3.7-2.07a.88.88,0,0,1,.86,0l3.7,2.07,2.16-3.64a.89.89,0,0,1,.74-.44l4.24,0,0-4.24a.9.9,0,0,1,.44-.74Z"/></g></svg>